<?xml version="1.0" encoding="UTF-8"?>
<svg version="1.1" xmlns="http://www.w3.org/2000/svg" width="120" height="120">
<path d="M0 0 C39.6 0 79.2 0 120 0 C120 39.6 120 79.2 120 120 C80.4 120 40.8 120 0 120 C0 80.4 0 40.8 0 0 Z " fill="#BDBDBD" transform="translate(0,0)"/>
<path d="M0 0 C9.9 0 19.8 0 30 0 C30 2.31 30 4.62 30 7 C22.74 7 15.48 7 8 7 C8 11.95 8 16.9 8 22 C12.95 22 17.9 22 23 22 C23 24.64 23 27.28 23 30 C18.05 30 13.1 30 8 30 C8 34.95 8 39.9 8 45 C15.59 45 23.18 45 31 45 C31 47.64 31 50.28 31 53 C20.77 53 10.54 53 0 53 C0 35.51 0 18.02 0 0 Z " fill="#0D0D0D" transform="translate(67,30)"/>
<path d="M0 0 C9.57 0 19.14 0 29 0 C29 2.31 29 4.62 29 7 C21.74 7 14.48 7 7 7 C7 19.54 7 32.08 7 45 C11.95 45 16.9 45 22 45 C22 40.05 22 35.1 22 30 C19.69 30 17.38 30 15 30 C15 27.69 15 25.38 15 23 C19.62 23 24.24 23 29 23 C29 32.57 29 42.14 29 52 C19.43 52 9.86 52 0 52 C0 34.84 0 17.68 0 0 Z " fill="#020202" transform="translate(23,30)"/>
</svg>
